<svg width="1269" height="890" viewBox="0 0 1269 890" fill="none" xmlns="http://www.w3.org/2000/svg">
<path d="M1009.47 1017.71L1005.93 1014.23C1048.52 970.698 1067.78 969.753 1124.94 966.917L1134.15 966.47C1140.67 966.121 1146.84 965.873 1152.66 965.624C1216.44 962.838 1240.32 961.793 1253.46 899.159C1268.63 827.173 1266 698.075 1254.1 627.282C1245.2 573.852 1208.83 544.401 1170.32 513.208C1142.46 490.672 1113.65 467.34 1096.29 434.108C1058.13 361.076 1104.3 243.022 1145.04 138.799C1163.55 91.5373 1181.02 46.8629 1187.83 12.5362L1192.81 13.4814C1185.89 48.3056 1168.38 93.0795 1149.77 140.639C1109.42 243.818 1063.65 360.778 1100.81 431.819C1117.68 464.106 1146.09 487.14 1173.55 509.378C1211.07 539.724 1249.88 571.166 1259.13 626.436C1271.07 697.677 1273.71 827.621 1258.43 900.055C1244.45 966.47 1217.69 967.664 1152.96 970.499L1134.5 971.345L1125.29 971.793C1069.47 974.628 1050.71 975.574 1009.47 1017.71Z" fill="#005c66"/>
<path d="M989.912 1022.09L986.43 1018.56C1029.72 975.474 1048.02 973.783 1108.62 968.808L1122.61 967.714C1187.29 962.739 1208.88 960.997 1222.11 899.806C1238.83 824.039 1242.86 695.836 1230.77 625.79C1221.42 571.066 1183.95 541.565 1144.3 510.174C1115.19 487.19 1085.14 463.36 1067.28 428.934C1029.57 356.301 1076.43 242.177 1117.73 141.485C1137.63 93.1295 1156.29 47.5098 1163.2 12.1384L1168.18 13.0836C1161.21 49.052 1142.36 94.9204 1122.46 143.475C1081.51 242.973 1035.14 356.151 1071.76 426.745C1089.17 460.226 1118.82 483.707 1147.48 506.343C1186.14 536.939 1226.09 568.579 1235.8 624.994C1247.93 695.737 1243.86 824.686 1227.09 900.901C1212.81 965.574 1188.28 967.614 1122.61 972.688L1109.17 973.783C1048.27 978.957 1031.9 980.3 989.912 1022.09Z" fill="#005c66"/>
<path d="M978.32 1032.64L974.638 1029.25C1013.15 986.917 1029.12 983.136 1084.1 975.326H1085.74C1155.99 965.376 1170.67 963.237 1184.95 902.195C1204.5 819.065 1222.91 696.085 1210.67 623.154C1201.17 566.39 1160.92 535.596 1118.08 502.961C1086.83 479.131 1054.54 454.505 1035.69 418.835C997.575 346.6 1046.93 237.153 1090.41 140.59C1112.01 92.7319 1132.36 47.5599 1139.82 11.89L1144.8 12.885C1137.23 49.1021 1116.73 94.5228 1095.04 142.63C1051.96 238.148 1003.1 346.6 1040.31 416.497C1058.62 451.321 1090.46 475.499 1121.26 499.03C1162.91 530.77 1205.84 563.704 1215.79 622.358C1228.18 695.986 1209.62 819.761 1190.02 903.339C1175.1 967.714 1157.98 970.102 1086.63 980.251H1084.99C1030.11 988.012 1015.78 991.395 978.32 1032.64Z" fill="#005c66"/>
<path d="M973.394 1047.61L968.767 1045.72C986.032 1003.09 1021.21 991.942 1055.14 981.047C1089.97 970.052 1122.66 959.655 1139.22 918.313C1149.42 892.892 1153.75 861.152 1157.88 830.407C1160.45 808.417 1164.27 786.591 1169.32 765.037C1171.26 757.575 1173.4 750.113 1175.54 742.252C1186.94 701.558 1198.68 659.47 1190.72 619.174C1179.18 560.769 1135.44 528.034 1089.17 493.359C1050.41 464.355 1010.36 434.357 992.002 388.091C963.444 315.955 1011.31 227.651 1057.58 142.232C1083.4 94.5726 1107.83 49.5001 1116.68 10.6463L1121.66 11.7408C1112.61 51.5398 1088.08 96.6123 1061.96 144.62C1016.23 229.193 968.966 316.303 996.629 386.25C1014.44 431.024 1053.95 460.873 1092.16 489.379C1136.93 523.059 1183.7 557.933 1195.59 618.179C1203.8 659.669 1191.86 702.354 1180.37 743.596C1178.23 751.257 1176.09 758.819 1174.15 766.281C1169.14 787.602 1165.36 809.196 1162.86 830.955C1158.63 861.948 1154.3 894.036 1143.85 920.005C1126.39 963.535 1090.96 974.729 1056.68 985.673C1022.4 996.618 989.763 1007.12 973.394 1047.61Z" fill="#005c66"/>
<path d="M972.897 1066.81L967.922 1065.72C976.38 1029.05 996.629 1018.31 1020.06 1006.02C1029.24 1001.33 1038.14 996.134 1046.73 990.449C1075.89 970.549 1078.32 963.236 1087.38 936.372C1088.77 932.293 1090.32 927.716 1092.11 922.592C1100.51 898.911 1107.03 873.44 1112.9 848.814C1119.52 820.042 1127.82 791.686 1137.78 763.893C1140.62 756.48 1143.65 748.968 1146.74 741.207C1163.45 699.568 1180.77 656.635 1172.96 613.651C1161.56 551.167 1112.85 516.442 1061.26 479.628C1018.52 449.033 974.389 417.741 954.488 369.037C925.332 297.746 977.822 214.815 1028.52 134.521C1056.98 89.3985 1083.85 47.0125 1094.1 9.80035L1099.07 11.0938C1088.62 49.2512 1061.61 92.0849 1032.95 137.406C982.897 216.606 931.104 298.493 959.314 367.395C978.618 414.606 1022.15 445.65 1064.29 475.698C1114.4 511.418 1166.24 548.381 1178.03 612.856C1186.09 657.132 1168.53 700.861 1151.51 743.148C1148.43 750.809 1145.39 758.371 1142.61 765.783C1132.74 793.456 1124.55 821.698 1118.08 850.356C1111.96 875.231 1105.59 900.702 1097.18 924.582C1095.39 929.557 1093.85 934.233 1092.45 938.312C1083.45 965.027 1080.41 973.982 1049.87 994.877C1041.15 1000.69 1032.09 1005.99 1022.75 1010.75C999.266 1022.59 980.857 1032.39 972.897 1066.81Z" fill="#005c66"/>
<path d="M975.634 1088.7L970.658 1088.3C973.146 1055.92 991.057 1026.17 1008.32 997.414C1021.85 974.927 1035.89 951.645 1042.6 927.069C1051.26 895.727 1070.31 856.923 1090.51 815.88C1125.34 744.59 1165.15 663.798 1155.84 606.935C1144.8 540.023 1087.83 501.169 1032.75 463.559C985.684 431.422 936.975 398.239 915.482 347.396C885.629 276.355 943.145 199.443 998.968 125.118C1030.31 83.3789 1059.92 43.9778 1071.76 8.10895L1076.48 9.70091C1064.34 46.316 1034.54 86.0156 1002.95 128.103C947.971 201.333 891.102 277.051 920.059 345.456C941.005 395.204 989.067 427.74 1035.54 459.48C1091.51 497.637 1149.37 537.138 1160.77 606.09C1170.42 664.544 1130.32 746.083 1094.94 818.02C1075.04 858.863 1055.94 897.618 1047.43 928.362C1040.46 953.585 1026.33 977.166 1012.6 999.951C994.839 1029.65 978.022 1057.51 975.634 1088.7Z" fill="#005c66"/>
<path d="M975.136 1112.23C973.842 1056.71 978.171 972.241 990.858 917.965C1001.21 873.489 1032 829.71 1064.64 783.344C1106.73 723.646 1150.22 661.659 1144.55 599.274C1138.23 529.924 1071.91 485.399 1007.77 442.416C961.702 411.472 914.038 379.533 890.505 338.839C844.333 259.241 907.471 187.951 968.568 119.148C1001.31 82.334 1035.09 44.5249 1049.62 6.56653L1054.24 8.30775C1039.32 46.9128 1005.29 85.3189 972.3 122.432C912.595 189.891 850.403 259.688 894.784 336.351C917.77 376.15 962.847 406 1010.51 438.287C1075.64 481.916 1142.95 527.088 1149.52 598.826C1155.34 662.853 1111.31 725.437 1068.67 786.031C1036.38 831.949 1005.83 875.579 995.684 918.86C983.096 972.788 978.817 1056.71 980.111 1111.94L975.136 1112.23Z" fill="#005c66"/>
<path d="M984.838 1136.11H979.863C980.161 1103.43 968.767 1072.48 957.772 1042.59C943.891 1004.73 929.512 965.624 938.418 922.492C949.065 871.201 991.356 822.497 1032.25 775.484C1082.4 717.776 1134.25 658.077 1129.57 592.657C1124.35 520.173 1050.56 472.066 979.166 425.551C926.427 391.125 876.524 358.639 851.896 316.85C802.889 233.819 870.753 171.335 936.477 110.89C972.748 77.4586 1010.26 42.9329 1027.68 5.32281L1032.2 7.41227C1014.19 45.8681 976.33 80.742 939.562 114.521C872.444 176.31 809.058 234.715 856.026 314.263C880.106 355.057 929.462 387.244 981.753 421.322C1054.14 468.534 1128.97 517.288 1134.35 592.259C1139.32 659.768 1086.68 720.213 1035.84 778.668C995.386 825.233 953.493 873.191 943.144 923.437C934.537 965.176 948.12 1001.89 962.3 1040.79C973.594 1071.14 985.136 1102.48 984.838 1136.11Z" fill="#005c66"/>
<path d="M983.445 1159.69C975.335 1132.18 957.523 1104.37 938.667 1075.12C907.969 1027.21 876.226 977.614 887.072 926.82C898.864 871.649 949.662 821.402 998.819 772.599C1057.33 714.642 1117.88 654.744 1114.05 585.941C1111.76 544.202 1060.46 502.214 1026.53 474.454L1014.59 464.505C996.182 448.983 973.594 433.412 949.911 416.845C899.56 382.021 842.443 342.67 813.984 295.209C762.141 208.945 834.433 154.47 904.287 101.836C944.09 71.9864 985.236 40.7939 1005.49 3.63156L1009.86 6.01952C989.117 44.1271 947.523 75.6679 907.272 105.816C836.025 159.495 768.758 210.288 818.213 292.672C846.175 339.187 902.794 378.29 952.548 412.766C976.579 429.382 999.267 445.053 1017.82 460.674L1029.72 470.624C1064.54 498.931 1116.64 541.715 1119.27 585.693C1123.2 656.734 1061.86 717.427 1002.55 776.131C953.941 824.188 903.69 873.937 892.197 927.666C881.749 976.47 912.944 1025.17 943.095 1072.24C962.101 1102.09 980.112 1130.04 988.42 1158.2L983.445 1159.69Z" fill="#005c66"/>
<path d="M984.34 1180.54C971.852 1149.69 944.537 1120.34 915.183 1089.3C873.29 1044.53 829.955 998.359 833.636 946.073C838.612 876.922 902.297 822.298 963.892 769.465C1029.82 713 1097.93 654.595 1089.77 580.419C1080.71 497.886 1001.16 450.774 924.238 405.204C856.673 365.405 786.818 323.865 763.335 258.296C740.249 193.622 754.876 171.882 813.785 134.322C831.149 123.277 847.667 114.124 863.538 105.268C909.959 79.5481 950.06 57.3601 982.947 2.83542L987.176 5.37262C953.841 61.0415 913.193 83.5778 866.126 109.845C850.204 118.651 833.736 127.755 816.372 138.749C759.105 175.215 745.772 195.164 767.912 256.803C790.799 320.681 859.906 361.574 926.676 401.075C1004.64 447.242 1085.29 495 1094.59 580.17C1103.05 657.231 1033.89 716.482 967.076 773.793C906.227 825.681 843.289 879.36 838.562 946.421C835.03 996.568 877.619 1041.99 918.765 1085.72C948.219 1117.11 976.031 1146.81 988.868 1178.5L984.34 1180.54Z" fill="#005c66"/>
<path d="M980.808 1197.95C952.896 1140.54 925.581 1117.56 887.818 1085.72C875.828 1075.77 862.195 1064.18 847.319 1050.5C820.8 1026.17 785.823 989.205 788.012 949.555C792.042 877.171 863.091 821.551 931.8 767.823C1004.24 711.258 1079.47 652.256 1071.36 575.195C1062.3 489.727 978.27 440.874 896.973 393.612C825.775 352.271 752.19 309.487 727.81 241.928C713.631 230.386 705.819 217.75 704.625 204.418C703.332 189.99 709.601 174.568 723.681 158.45L724.228 158.002L781.047 121.486C799.953 111.536 817.666 103.278 834.831 95.5671C883.092 73.7274 924.835 54.9224 960.16 1.5419L964.339 4.27808C928.169 59.0018 885.878 77.9561 836.87 100.094C819.805 107.805 802.043 115.765 783.584 125.765L727.213 161.982C714.327 176.906 708.407 191.035 709.551 203.97C710.645 216.059 718.059 227.7 731.492 238.495L732.04 238.893V239.59C755.772 305.806 828.81 348.291 899.461 389.334C981.853 437.192 1066.98 486.692 1076.29 574.648C1084.69 654.495 1008.52 713.945 934.885 771.703C867.071 824.785 796.918 879.708 792.988 949.854C790.898 987.364 824.93 1023.18 850.702 1046.81C865.628 1060.45 879.062 1071.69 891.002 1081.94C929.263 1114.12 956.926 1137.41 985.286 1195.76L980.808 1197.95Z" fill="#005c66"/>
<path d="M971.504 1210.54C939.711 1150.39 908.018 1126.56 864.235 1093.68C849.806 1082.83 833.487 1070.59 815.825 1055.87C793.037 1036.91 745.572 997.364 747.861 952.142C751.642 877.519 828.014 821.203 902.097 766.828C979.713 709.716 1060.02 650.614 1051.76 571.564C1042.55 484.006 955.135 433.859 870.554 385.354C796.421 342.868 719.75 298.89 694.575 229.491C679.997 217.949 671.987 205.313 670.743 191.98C669.449 177.603 676.067 162.131 690.346 146.162L690.943 145.614L750.15 111.934C770.051 102.532 788.958 95.4675 807.068 88.6519C856.822 69.9961 899.56 53.8278 936.676 0.795532L940.756 3.63121C902.744 58.0067 859.21 74.374 808.859 93.1791C790.799 99.9449 772.141 106.959 752.438 116.213L693.779 149.594C680.644 164.519 674.574 178.498 675.718 191.383C676.813 203.472 684.375 215.113 698.207 225.909L698.754 226.307L699.003 227.003C723.332 295.06 799.456 338.689 873.141 380.876C958.767 430.028 1047.28 480.822 1056.78 570.917C1065.39 652.803 983.892 712.751 905.132 770.708C832.144 824.387 756.717 880.155 753.085 952.241C750.946 994.976 797.067 1033.43 819.258 1051.74C836.821 1066.32 853.09 1078.55 867.469 1089.35C910.108 1121.39 943.791 1146.71 976.181 1207.9L971.504 1210.54Z" fill="#005c66"/>
<path d="M954.886 1217.2C922.098 1154.97 886.077 1129.85 840.453 1097.81C824.283 1086.51 805.924 1073.68 786.271 1058.01C758.508 1036.07 712.088 999.404 714.526 953.237C718.606 877.121 798.063 820.656 874.882 766.032C955.433 708.821 1038.72 649.62 1030.11 569.375C1020.61 480.623 931.203 429.78 844.682 380.628C768.708 337.446 690.197 292.822 664.574 222.228C649.996 210.636 641.936 198 640.742 184.618C639.398 170.191 645.966 154.769 660.245 138.6L660.941 138.053L721.591 106.064C742.637 97.0599 762.14 90.7418 781.047 84.573C831.298 68.2056 874.733 54.077 912.446 0L916.526 2.83568C877.867 58.2559 833.686 72.484 782.589 89.2494C763.782 95.3685 744.378 101.687 723.681 110.492L663.628 142.182C650.543 157.107 644.473 171.186 645.667 184.12C646.811 196.259 654.374 207.9 668.205 218.696L668.802 219.144L669.051 219.84C693.928 289.041 771.743 333.367 847.169 376.25C934.736 425.999 1025.29 477.539 1035.04 568.778C1043.99 651.958 959.463 712.005 877.768 770.062C801.894 823.99 723.532 879.509 719.501 953.486C717.213 997.016 762.339 1032.74 789.157 1054.03C808.71 1069.5 826.173 1081.69 843.09 1093.53C889.261 1125.77 925.73 1151.19 959.115 1214.52L954.886 1217.2Z" fill="#005c66"/>
<path d="M929.611 1218C896.823 1156.41 860.653 1130.59 814.879 1097.91C798.112 1085.92 780.798 1073.58 761.494 1058.11C732.089 1034.53 687.709 998.857 689.898 953.635C693.63 877.42 773.186 820.805 850.105 766.032C930.656 708.721 1013.94 649.471 1005.54 569.176C996.182 480.175 906.426 429.879 819.556 380.827C743.533 338.143 664.723 293.369 639.05 222.974C624.572 211.383 616.611 198.697 615.367 185.264C614.024 170.788 620.343 155.415 634.522 139.147L635.219 138.6L696.167 106.562C717.462 97.5573 737.214 91.2392 756.319 85.1201C806.819 69.0015 850.403 55.2708 887.868 0.547119L891.997 3.3828C853.538 59.2507 809.207 73.4789 757.663 89.896C738.657 95.9653 719.054 102.234 697.958 111.089L637.607 142.779C624.671 157.704 618.75 171.832 619.945 184.817C621.089 197.005 628.602 208.696 642.334 219.641L642.931 220.089V220.735C667.808 289.986 746.02 334.013 821.646 376.549C909.61 425.999 1000.51 477.141 1010.11 568.728C1018.82 651.859 934.338 712.005 852.642 770.161C776.668 824.188 698.107 880.106 694.525 953.933C692.436 996.618 735.671 1031.29 764.18 1054.28C783.335 1069.7 800.6 1082.04 817.317 1094.08C863.638 1127.11 900.207 1153.23 933.542 1215.86L929.611 1218Z" fill="#005c66"/>
<path d="M897.421 1218C865.927 1158.3 831.945 1130.89 788.908 1096.07C773.982 1084.08 759.056 1071.74 742.04 1056.81C716.019 1033.78 672.385 995.125 674.325 952.341C677.659 877.121 754.777 820.109 829.358 765.037C907.62 707.229 988.569 647.431 980.26 567.982C971.006 479.578 881.699 430.874 795.326 383.911C719.551 342.57 641.09 299.836 615.467 230.088C600.988 218.496 592.978 205.86 591.734 192.428C590.391 178.001 596.71 162.579 610.889 146.361L611.536 145.813L672.584 112.432C693.58 103.029 713.233 96.2138 732.288 89.5972C783.236 71.9364 827.218 56.6635 864.633 2.18857L868.713 5.02425C830.402 60.7927 785.674 76.3143 733.93 94.5721C715.024 101.139 695.471 107.905 674.823 117.108L614.372 150.241C601.486 165.166 595.515 179.294 596.759 192.229C598.003 205.164 605.416 216.059 619.148 227.053L619.696 227.501L619.944 228.197C644.821 296.552 722.537 338.938 797.764 379.981C885.231 427.69 975.733 477.091 985.236 568.081C993.843 650.316 911.75 710.96 832.343 769.614C758.707 824.039 682.535 880.305 679.35 953.137C677.559 993.782 719.999 1031.44 745.373 1053.93C762.14 1068.85 777.365 1081.04 792.092 1092.98C835.527 1128.2 869.907 1155.96 901.898 1216.46L897.421 1218Z" fill="#005c66"/>
<path d="M859.11 1217.9C843.189 1184.47 808.859 1151.14 772.539 1115.82C718.308 1063.13 662.235 1008.61 665.32 949.456C669.151 876.027 741.941 818.716 812.342 763.246C886.973 704.592 963.792 643.849 954.886 565.843C944.935 478.832 856.673 433.014 771.295 388.687C696.217 349.734 618.601 309.438 592.68 240.983C578.251 229.591 570.291 217.004 568.997 203.672C567.654 189.244 573.972 173.822 588.252 157.455L588.849 156.908L650.046 121.337C670.793 111.388 690.396 103.726 709.302 96.4629C760.797 76.5633 805.277 59.4498 842.543 4.17883L846.622 6.96477C808.511 63.5292 763.384 80.9413 711.093 101.139C692.237 108.403 672.783 116.064 652.384 126.014L591.734 161.335C578.699 176.26 572.729 190.538 573.972 203.522C575.117 215.611 582.629 227.153 596.312 237.799L596.859 238.247V238.894C621.736 305.955 698.854 345.903 773.335 384.558C859.907 429.332 949.413 475.947 959.613 565.594C968.768 646.436 890.704 707.975 815.327 767.475C745.672 822.199 673.927 878.862 670.196 950.003C667.211 1006.92 722.487 1060.59 775.922 1112.53C812.591 1148.15 847.219 1181.83 863.489 1216.06L859.11 1217.9Z" fill="#005c66"/>
<path d="M816.074 1217.7C803.486 1185.02 776.271 1150.84 747.016 1114.67C702.685 1059.5 656.862 1002.49 661.639 945.824C667.559 875.628 733.98 818.019 798.212 762.301C870.952 699.219 939.662 639.67 929.661 563.305C918.517 478.235 831.647 436.197 747.613 395.503C673.43 359.584 596.76 322.422 570.54 255.659C556.21 244.465 548.25 232.078 546.956 218.845C545.513 204.368 551.932 188.697 566.41 172.28L566.957 171.832L628.304 133.326C648.902 122.531 668.355 114.074 687.212 105.915C739.354 83.2791 784.331 63.7775 821.547 7.11365L825.726 9.84983C787.814 67.7575 742.14 87.5575 689.302 110.442C670.544 118.601 651.14 127.008 630.891 137.655L569.943 175.961C556.708 191.234 550.638 205.562 551.932 218.546C553.076 230.486 560.589 241.829 574.122 252.326L574.719 252.724L574.968 253.37C600.193 318.74 676.266 355.554 749.752 391.175C835.08 432.665 923.094 475.101 934.587 562.758C944.936 641.66 871.997 704.891 801.496 766.082C738.01 821.104 672.137 878.066 666.614 946.222C661.987 1000.95 707.163 1057.16 750.896 1111.59C780.201 1148.05 807.864 1182.53 820.552 1216.06L816.074 1217.7Z" fill="#005c66"/>
<path d="M769.603 1217.45C760.797 1184.47 741.294 1149.55 720.646 1112.58C688.804 1055.57 655.966 996.618 661.887 941.496C669.051 875.48 728.358 817.572 785.674 761.555C852.692 696.334 915.979 634.347 904.734 560.669C891.898 478.136 806.769 440.376 724.377 403.911C650.991 371.524 575.514 338.143 548.946 273.469C534.667 262.574 526.756 250.435 525.412 237.352C523.92 222.825 530.388 207.005 545.314 190.289L545.812 189.891L607.357 148.102C627.706 136.312 647.16 126.859 665.867 117.755C718.705 91.9855 764.33 69.7975 801.247 11.1934L805.426 13.8798C767.763 73.5784 721.541 96.1644 668.056 122.233C649.399 131.337 630.044 140.739 609.994 152.082L548.847 193.622C535.314 209.144 528.945 223.472 530.487 236.655C531.681 248.445 539.145 259.589 552.628 269.738L553.175 270.136L553.424 270.783C578.997 334.163 653.877 367.345 726.318 399.383C809.904 436.446 896.326 474.703 909.561 559.923C921.402 636.188 854.234 701.757 789.306 765.186C732.587 820.557 673.977 877.818 666.962 942.093C661.14 995.673 693.679 1053.88 725.124 1110.19C745.921 1147.46 765.623 1182.68 774.579 1216.21L769.603 1217.45Z" fill="#005c66"/>
<path d="M721.044 1217.15C716.567 1184.07 705.671 1149 694.177 1111.84C675.868 1052.73 656.912 991.642 664.574 936.77C673.032 876.374 724.278 818.566 773.634 762.649C832.095 696.582 892.496 628.327 879.41 557.684C864.484 478.086 781.296 444.953 700.795 412.964C628.652 384.359 554.121 354.758 527.353 291.727C498.347 223.471 529.344 199.691 586.66 163.474C606.561 150.838 625.965 140.341 644.623 130.192C698.207 101.039 744.429 75.8664 781.147 15.0734L785.426 17.6603C748.011 79.4484 701.193 105.019 647.011 134.471C628.403 144.42 609.198 155.116 589.297 167.653C528.1 206.308 505.76 228.197 531.931 289.737C558.101 351.276 631.438 380.08 702.586 408.288C784.381 440.774 868.962 474.354 884.286 556.738C897.819 629.72 836.572 698.921 777.366 765.683C728.408 821.104 677.858 878.364 669.5 937.267C661.987 991.045 680.744 1051.69 698.904 1110.19C710.497 1147.51 721.442 1182.78 725.97 1216.31L721.044 1217.15Z" fill="#005c66"/>
<path d="M676.564 1216.81H671.589C671.589 1185.22 669.35 1152.68 666.962 1118.15C662.633 1055.37 658.155 990.399 668.355 931.845C677.609 878.415 720.099 821.452 761.195 766.38C814.233 695.24 869.061 621.711 854.284 554.55C837.418 477.837 756.071 449.58 677.46 422.218C606.66 397.642 533.473 372.171 506.158 311.427C476.555 245.66 509.641 218.546 566.111 179.693C586.013 166.111 605.118 154.52 623.676 143.326C677.957 110.592 724.875 82.384 761.444 19.2527L765.723 21.7402C728.507 85.9659 681.142 114.522 626.413 147.555C607.904 158.748 588.749 170.29 569.096 183.822C513.124 222.278 482.824 247.102 510.835 309.388C537.254 368.191 609.447 393.264 679.201 417.542C759.155 445.351 841.846 474.056 859.309 553.505C874.584 622.855 819.009 697.329 765.325 769.365C724.577 824.089 682.435 880.454 673.38 932.691C663.429 990.648 667.758 1055.32 672.086 1117.86C674.325 1152.38 676.564 1185.07 676.564 1216.81Z" fill="#005c66"/>
<path d="M627.457 1217.15L622.482 1216.51C631.985 1143.18 645.717 1068.75 658.951 996.767C663.23 973.485 667.509 950.252 671.638 927.119C680.196 879.061 713.581 825.979 748.906 769.763C796.47 694.095 845.677 615.89 829.159 551.565C810.252 477.837 730.796 454.207 654.026 431.372C584.371 410.726 512.725 389.384 484.863 331.028C453.021 264.465 493.819 234.168 545.463 195.811C565.066 181.235 584.172 168.648 602.68 156.46C657.658 120.193 705.123 88.8513 741.592 23.4813L745.921 25.8693C708.954 92.2839 660.941 123.924 605.466 160.539C587.008 172.728 567.952 185.414 548.498 199.741C491.53 242.028 460.733 268.892 489.391 328.79C516.308 385.155 587.057 406.199 655.469 426.546C733.632 449.779 814.68 473.808 834.034 550.271C851.05 616.636 801.297 695.836 753.185 772.35C718.108 828.168 684.973 880.852 676.564 927.964C672.435 951.098 668.156 974.38 663.877 997.613C650.642 1069.45 636.96 1144.07 627.457 1217.15Z" fill="#005c66"/>
<path d="M579.943 1217.4L574.968 1216.21C586.56 1168.9 604.471 1123.68 621.786 1079.9C641.687 1029.55 662.285 977.514 673.032 922.542C686.664 852.894 713.83 795.931 742.687 735.437C746.966 726.432 751.294 717.328 755.673 708.025C759.504 699.866 763.982 691.111 768.708 681.807C789.804 640.665 816.024 589.424 804.083 548.63C783.336 477.688 705.67 458.385 630.542 439.73C562.38 422.815 491.929 405.353 463.42 349.237C430.881 285.26 472.276 252.376 524.617 210.786C544.021 195.364 563.076 181.832 581.485 168.698C637.11 128.899 685.122 94.8212 721.542 27.312L725.92 29.6502C688.953 98.2041 638.155 134.421 584.371 172.778C566.012 185.862 547.006 199.343 527.702 214.716C477.102 254.863 437.15 286.603 467.997 346.998C495.461 401.075 564.818 418.288 631.886 434.904C708.357 453.908 787.465 473.509 809.009 547.237C821.497 589.921 794.779 642.108 773.285 684.096C768.559 693.299 764.081 702.055 760.3 710.164C755.922 719.467 751.593 728.571 747.314 737.576C717.462 800.359 691.739 854.635 678.256 923.537C667.36 978.907 646.662 1031.19 626.661 1081.74C609.297 1125.32 591.287 1170.39 579.943 1217.4Z" fill="#005c66"/>
<path d="M535.214 1217.6L530.537 1216.01C546.508 1168.65 572.031 1125.67 596.709 1084.08C627.308 1032.64 658.901 979.603 671.34 918.661C687.659 839.61 710.894 777.623 739.552 704.741C742.885 696.234 746.866 687.08 751.095 677.379C769.056 636.187 791.445 584.946 778.808 545.943C756.568 477.29 680.395 461.867 606.71 446.943C539.791 433.361 470.534 419.332 441.478 365.305C408.292 303.616 451.08 267.648 500.635 226.008L503.123 223.969C522.377 207.8 541.333 193.373 559.643 179.443C615.815 136.759 664.125 99.8453 700.694 30.595L705.122 32.8834C668.255 103.178 616.959 142.331 562.628 183.423C544.368 197.303 525.462 211.681 506.357 227.749L503.869 229.839C454.115 271.727 414.561 304.81 445.856 362.917C473.818 414.905 541.881 428.735 607.705 442.067C682.783 457.241 760.399 472.961 783.534 544.401C796.769 585.195 773.982 637.431 755.672 679.369C751.443 689.021 747.513 698.125 744.179 706.532C715.62 779.116 692.485 840.854 676.216 919.557C663.528 981.146 631.686 1034.72 600.888 1086.51C576.36 1128 551.035 1170.74 535.214 1217.6Z" fill="#005c66"/>
<path d="M494.615 1217.75L490.038 1215.91C509.442 1167.26 541.483 1125.07 572.43 1084.28C611.288 1033.08 651.488 980.201 665.021 915.527C679.732 843.412 698.637 772.217 721.641 702.304C724.626 693.299 728.258 683.549 732.139 673.25C747.463 632.258 766.569 581.215 753.633 543.904C730.398 476.792 655.419 464.305 582.878 452.714C516.905 441.968 448.543 430.825 419.089 378.389C385.356 318.691 429.488 279.936 476.206 239.093L481.182 234.764C500.237 217.999 519.144 202.875 537.403 188.299C591.635 144.918 642.881 103.726 679.251 33.431L683.679 35.7195C646.812 107.209 595.167 148.5 540.488 192.18C522.278 206.756 503.422 222.029 484.465 238.496L479.49 242.824C432.423 284.066 391.774 319.686 423.517 376.001C451.877 426.347 518.895 437.292 583.724 447.839C657.708 459.928 734.179 472.415 758.359 542.361C771.892 581.414 752.439 633.352 736.866 675.091C732.985 685.339 729.353 694.991 726.417 703.995C703.457 773.724 684.601 844.738 669.947 916.671C655.966 982.29 615.616 1035.67 576.36 1087.26C545.613 1127.81 513.77 1169.74 494.615 1217.75Z" fill="#005c66"/>
<path d="M459.439 1217.8L454.862 1215.86C476.256 1165.07 513.223 1123.08 548.946 1082.48C595.018 1030.1 638.503 980.598 652.483 913.338L657.956 886.872C670.892 823.84 683.132 764.34 701.093 700.562C703.829 690.861 707.262 680.364 711.044 669.32C724.925 626.835 740.896 578.678 728.358 542.063C705.72 475.349 631.089 465.499 558.698 455.947C493.322 447.341 425.657 438.436 395.904 387.294C361.823 328.74 405.307 289.538 451.329 247.997L458.046 241.928C477.002 224.765 495.859 209.144 514.069 194.02C568.798 148.898 620.094 106.213 656.513 35.0725L660.942 37.361C624.024 109.298 572.181 152.43 517.253 197.9C499.043 212.825 480.236 228.546 461.38 245.659L454.663 251.729C410.183 291.826 368.141 329.735 400.183 384.807C428.741 433.809 495.162 442.565 559.394 451.022C633.129 460.972 709.402 470.922 732.985 540.57C745.871 578.727 729.801 627.73 715.671 670.962C712.039 682.006 708.606 692.404 705.72 702.005C687.858 765.584 675.868 825.034 662.683 887.966L657.21 914.482C643.03 982.887 597.008 1035.17 552.727 1085.72C517.203 1126.06 480.535 1167.75 459.439 1217.8Z" fill="#005c66"/>
<path d="M430.831 1217.75L426.253 1215.91C447.797 1161.78 487.649 1119.65 526.258 1078.85C573.872 1028.46 618.9 980.897 632.383 912.791C634.837 900.519 637.225 888.331 639.547 876.225C651.289 816.527 662.384 759.664 677.31 700.164C679.947 689.667 683.48 678.175 687.261 665.937C700.147 623.899 714.775 576.389 702.734 541.565C679.549 474.554 605.516 466.047 533.97 457.788C469.042 450.276 401.924 442.565 371.823 391.473C337.543 333.167 382.321 292.125 425.806 252.375L433.766 245.112C452.623 227.7 471.479 211.78 489.689 196.408C544.418 150.241 595.864 106.86 632.432 35.7691L636.861 38.0575C599.844 109.845 547.901 153.724 492.874 200.189C474.713 215.561 455.907 231.431 437.149 248.744L429.189 256.057C385.306 296.204 343.911 334.113 376.052 388.687C404.909 437.64 470.584 445.252 534.468 452.565C607.605 461.022 683.181 469.728 707.361 539.725C719.949 576.141 705.123 624.646 691.988 667.43C688.256 679.568 684.773 691.011 682.037 701.358C667.111 760.758 656.065 817.323 644.324 877.171C641.969 889.276 639.58 901.465 637.159 913.736C623.377 983.384 575.763 1033.58 529.741 1082.28C491.779 1122.73 451.976 1164.52 430.831 1217.75Z" fill="#005c66"/>
<path d="M407.745 1212.43L403.118 1210.59C424.711 1155.86 465.061 1113.78 504.068 1073.13C551.782 1023.38 596.859 976.42 610.541 908.115C615.168 884.882 619.646 861.401 623.925 838.715C632.532 793.444 641.388 746.63 652.235 700.165C654.722 689.369 658.205 677.579 661.837 665.092C673.778 624.198 687.261 577.932 675.519 543.804C652.832 477.788 580.341 467.639 510.238 457.789C446.752 448.884 380.878 439.68 351.325 389.284C317.194 331.427 359.932 292.075 405.208 250.386L412.173 243.62C430.433 226.705 448.643 211.184 466.255 196.16C520.039 150.241 570.738 106.91 607.506 36.6649L611.884 39.003C574.967 110.243 523.771 154.072 469.639 200.139C452.076 215.064 433.916 230.635 415.706 247.5L408.591 254.067C364.808 294.314 323.512 332.322 355.653 386.747C384.162 435.053 448.643 444.108 510.934 452.863C582.53 462.813 656.513 473.31 680.097 542.163C692.336 577.783 678.604 624.895 666.464 666.535C662.832 679.022 659.399 690.762 656.911 701.359C646.115 747.725 637.01 794.439 628.651 839.661C624.373 862.396 619.945 885.877 615.268 909.309C601.287 978.957 553.623 1028.71 507.501 1076.76C468.992 1116.86 428.99 1158.55 407.745 1212.43Z" fill="#005c66"/>
<path d="M387.794 1197.75L383.216 1195.91C404.959 1141.19 445.956 1099.9 485.56 1059.9C534.02 1010.99 579.793 964.778 593.227 896.473C597.555 874.235 605.167 845.431 613.128 814.935C637.209 723.695 667.16 610.119 646.562 548.43C624.969 483.757 555.563 470.772 488.396 458.236C427.646 446.893 364.808 435.152 336.299 385.354C303.063 327.247 345.205 288.045 389.784 246.505L395.058 241.53C412.521 225.212 429.885 210.238 446.553 195.811C498.446 151.037 547.453 108.75 582.928 39.9478L587.356 42.2362C551.433 111.885 502.078 154.47 449.837 199.592C433.119 213.969 415.855 228.894 398.491 245.162L393.167 250.136C348.389 291.975 309.332 328.143 340.627 382.866C367.992 430.625 429.686 442.167 489.341 453.311C557.852 466.096 628.651 479.329 651.289 546.789C672.335 609.92 642.184 724.292 617.954 816.178C609.894 846.575 602.331 875.28 598.053 897.369C584.37 967.017 535.91 1016.07 489.042 1063.38C449.837 1103.08 409.188 1144.07 387.794 1197.75Z" fill="#005c66"/>
<path d="M370.43 1175.46L365.853 1173.52C388.69 1119.99 429.637 1079 469.191 1039.2C521.084 987.315 570.091 938.262 580.838 863.738C584.122 841.152 590.789 811.651 597.754 780.459C615.118 703.1 636.761 606.836 621.686 551.614C604.869 490.075 535.761 470.872 468.942 452.117C418.791 438.137 366.947 423.71 338.19 391.274C289.929 336.849 321.522 297.348 371.375 247.401C391.774 227.004 412.173 208.994 431.926 191.533C479.789 149.346 525.015 109.447 558.499 44.5746L562.927 46.8631C528.995 112.581 483.321 152.729 435.209 195.264C415.557 212.676 395.406 230.635 374.858 250.933C325.453 300.681 296.446 336.7 341.921 387.991C369.684 419.332 420.83 433.561 470.286 447.341C538.448 466.295 608.949 485.896 626.462 550.172C641.886 606.587 620.094 703.498 602.581 781.404C595.615 812.497 588.998 841.899 585.764 864.336C574.768 940.451 522.925 992.389 472.724 1042.59C433.468 1082.19 392.869 1122.83 370.43 1175.46Z" fill="#005c66"/>
<path d="M355.006 1147.36L350.429 1145.37C373.266 1093.83 415.109 1054.28 455.708 1016.02C509.84 964.928 560.937 916.522 569.644 842.844C571.584 825.98 574.619 805.483 578.102 783.793C589.545 709.169 603.874 615.89 589.595 560.271C574.072 499.627 511.233 476.395 450.285 453.908C404.263 436.844 356.698 419.084 329.831 385.454C285.053 329.188 315.95 289.588 360.877 243.67C379.933 224.168 398.889 207.204 417.248 190.737C461.579 150.938 503.422 113.378 533.921 51.0423L538.398 53.2312C507.601 116.362 465.41 154.072 420.731 194.369C402.422 210.786 383.565 227.75 364.609 247.102C321.423 291.23 291.72 329.238 333.911 382.32C359.882 415.054 406.8 432.367 452.175 449.182C514.168 472.116 578.251 495.797 594.421 558.978C608.899 615.592 594.421 709.219 582.978 784.489C579.694 806.13 576.559 826.626 574.569 843.392C565.663 919.01 511.681 969.953 459.141 1019.7C418.99 1057.56 377.346 1096.76 355.006 1147.36Z" fill="#005c66"/>
<path d="M340.876 1115.22L336.448 1113.08C360.777 1062.88 402.869 1025.32 443.617 989.006C494.913 943.287 543.125 900.055 558.051 834.287C571.036 776.33 570.34 630.317 552.478 571.315C534.617 512.313 480.733 486.045 428.542 460.624C381.972 437.888 334.01 414.407 310.377 367.991C286.744 321.576 315.999 279.737 343.712 247.898C364.633 224.324 387.052 202.123 410.83 181.433C448.742 147.256 481.48 117.705 509.74 57.9568L514.218 60.0462C485.56 120.74 452.473 150.589 414.163 185.164C390.535 205.687 368.265 227.722 347.493 251.131C320.825 281.826 292.764 322.62 314.855 365.554C337.592 410.328 384.958 433.61 430.781 455.997C483.918 481.916 538.895 508.731 557.304 569.723C575.315 629.421 576.012 776.728 562.976 835.232C548.05 902.592 498.894 946.272 446.951 992.588C406.551 1028.76 364.807 1065.97 340.876 1115.22Z" fill="#005c66"/>
<path d="M327.592 1080.84L323.164 1078.5C356.001 1017.11 385.903 987.364 440.483 943.884L456.304 931.397C508.844 890.105 543.522 862.843 550.587 795.185C556.309 740.461 537.801 636.635 522.875 580.32C507.103 521.069 461.528 491.319 413.417 459.778C377.594 436.347 340.577 412.169 317.541 374.857C279.082 312.671 316.795 270.733 356.747 226.357L359.733 223.024C374.659 206.408 388.092 193.174 401.078 180.09C434.363 146.908 460.782 120.69 485.659 65.6681L490.186 67.7078C464.912 123.824 438.343 150.341 404.66 183.871C391.724 196.756 378.34 210.089 363.564 226.556L360.529 229.939C320.178 274.713 285.351 313.467 321.87 372.519C344.309 408.835 380.878 432.765 416.402 455.848C463.32 486.493 511.829 518.233 528.049 579.325C542.975 635.988 561.732 740.66 555.961 795.931C548.647 865.579 513.272 893.488 459.737 935.526L443.965 948.013C389.535 990.797 359.981 1020.25 327.592 1080.84Z" fill="#005c66"/>
<path d="M314.407 1045.92L310.079 1043.48C344.11 982.987 373.415 955.426 430.433 912.741C436.851 907.766 443.319 903.239 449.638 898.662C498.197 863.291 540.14 832.795 541.732 770.31C542.627 736.183 525.164 690.712 509.79 650.267C501.531 628.676 493.769 608.328 489.092 590.916C473.768 533.954 435.906 499.826 395.755 463.758C364.907 435.998 333.015 407.293 312.915 367.395C276.346 294.911 333.612 231.73 388.938 170.638C419.338 137.107 448.046 105.417 461.081 73.031L465.708 74.8717C452.324 108.104 423.368 140.092 392.62 173.971C338.389 233.67 282.316 295.756 317.343 365.156C336.996 404.209 368.589 432.615 399.088 460.027C437.995 494.851 478.196 531.218 493.62 589.623C498.247 606.786 505.959 627.034 514.168 648.476C529.741 689.17 547.354 735.337 546.458 770.46C544.817 835.133 501.929 866.574 452.325 902.692C446.006 907.269 439.588 911.896 433.169 916.721C376.997 958.958 348.041 986.22 314.407 1045.92Z" fill="#005c66"/>
<path d="M300.824 1012.34L296.595 1009.7C336.697 945.028 371.624 918.164 429.935 876.375C434.91 872.743 440.532 868.912 446.453 864.883C484.365 839.013 536.258 803.642 536.756 756.629C537.055 727.228 514.317 693.946 492.326 661.758C476.803 639.023 462.126 617.581 455.608 597.93C440.682 552.858 410.83 513.755 382.171 475.996C351.225 435.351 319.233 393.314 306.397 344.261C288.286 274.613 328.736 227.351 371.624 177.105C396.998 147.256 423.268 116.461 436.751 80.3438L441.428 82.085C427.646 118.999 401.078 150.191 375.405 180.339C333.413 229.59 293.759 276.105 311.223 343.017C323.81 391.075 354.061 430.874 386.152 472.961C415.158 511.069 445.11 550.52 460.334 596.338C466.653 615.342 481.082 636.535 496.406 658.922C518.845 691.757 542.03 725.735 541.731 756.679C541.184 806.428 488.047 842.545 449.289 868.962C443.368 872.992 437.796 876.822 432.821 880.404C375.057 921.795 340.428 948.361 300.824 1012.34Z" fill="#005c66"/>
<path d="M286.346 981.444L281.819 979.405C295.954 947.666 316.395 919.132 341.9 895.536C367.405 871.941 397.441 853.777 430.184 842.148C490.436 820.855 522.228 779.763 524.716 719.915C518.546 695.588 498.247 681.459 476.753 666.435C455.26 651.411 433.915 636.586 422.97 610.567V609.771C419.806 558.174 400.347 508.913 367.395 469.081C332.322 425.048 306.743 374.234 292.267 319.835C286.247 261.38 320.975 218.646 354.558 177.305C377.346 149.395 400.78 120.591 412.173 86.9607L417.149 88.6024C405.208 123.078 381.575 152.181 358.688 180.339C324.209 222.775 291.62 262.823 297.391 318.84C311.708 372.457 336.947 422.539 371.524 465.947C404.912 506.511 424.625 556.588 427.846 609.025C438.294 633.501 459.34 648.177 479.689 662.355C502.078 677.977 523.223 692.702 529.741 719.069V719.417V719.766C527.204 782.051 494.267 824.785 431.826 846.824C399.727 858.249 370.282 876.072 345.275 899.212C320.268 922.352 300.22 950.328 286.346 981.444Z" fill="#005c66"/>
<path d="M270.126 955.774L265.649 953.635C296.496 888.613 347.294 843.59 416.601 819.761C477.599 800.259 509.839 760.062 512.476 700.364C503.819 675.987 481.828 669.818 458.543 663.251C434.164 656.386 406.551 648.575 391.675 618.477L391.376 617.482C389.788 565.261 374.333 514.403 346.598 470.126C317.029 421.681 296.198 368.42 285.052 312.771C280.973 256.952 308.486 219.84 337.642 180.538C357.295 154.022 377.445 126.561 387.893 92.6322L392.869 94.0749C382.371 128.899 361.773 156.609 341.821 183.623C313.263 222.128 286.247 258.544 290.177 312.174C301.194 367.082 321.72 419.644 350.827 467.489C378.967 512.322 394.679 563.831 396.351 616.736C410.332 644.645 435.507 651.56 459.887 658.575C484.266 665.589 507.949 672.156 517.352 699.319V699.767V700.264C514.765 762.4 481.38 804.189 418.094 824.636C350.23 847.819 300.426 891.996 270.126 955.774Z" fill="#005c66"/>
<path d="M251.618 936.72L247.24 934.432C282.913 866.375 338.787 819.711 413.218 795.832C478.843 775.285 504.566 736.133 491.879 676.435C465.878 662.682 435.678 659.134 407.198 666.485H406.8H406.402C389.535 665.291 377.445 660.216 370.43 651.311C363.415 642.406 361.773 631.163 364.211 616.487C360.298 577.715 351.126 539.656 336.946 503.358C311.832 447.018 291.478 388.674 276.097 328.939C267.34 264.266 292.466 225.511 319.084 184.369C335.801 158.549 353.116 131.785 363.315 96.9604L368.29 98.3534C357.842 133.874 340.379 160.937 323.512 187.105C297.391 227.452 272.763 265.559 281.222 327.994C296.529 387.39 316.783 445.401 341.772 501.418C356.189 538.288 365.512 576.95 369.485 616.338V616.736C367.196 630.317 368.937 640.864 374.46 648.127C379.983 655.391 391.277 660.266 406.501 661.41C436.479 653.9 468.185 657.95 495.312 672.753L496.307 673.3V674.395C510.039 736.78 482.475 779.216 414.512 800.558C341.573 824.039 286.694 869.858 251.618 936.72Z" fill="#005c66"/>
<path d="M230.324 926.024L225.946 923.736C261.818 855.481 318.089 809.314 393.267 786.827C459.34 766.928 485.411 727.925 472.873 667.878C443.671 656.194 411.15 655.875 381.724 666.982H380.978C362.967 667.579 350.131 663.599 342.717 655.092C335.304 646.585 333.612 635.193 336.2 619.87C331.812 580.771 323.597 542.196 311.671 504.702C290.404 446.047 272.904 386.094 259.28 325.208C251.917 262.226 274.555 224.367 298.486 184.319C313.412 159.097 329.085 133.078 338.687 98.9504L343.663 100.294C333.712 135.118 318.089 161.385 302.914 186.857C279.381 226.158 257.191 263.321 264.355 324.412C277.949 385.018 295.365 444.703 316.497 503.11C328.576 541.058 336.908 580.098 341.374 619.671V620.368C338.936 634.447 340.727 645.242 346.648 651.809C352.569 658.376 364.41 662.505 380.63 661.759C411.529 650.202 445.659 650.771 476.157 663.351L477.4 663.848L477.699 665.142C491.331 728.024 463.519 770.41 394.909 791.155C320.826 813.791 265.549 859.013 230.324 926.024Z" fill="#005c66"/>
<path d="M206.591 924.88L202.213 922.591C237.886 854.635 293.859 808.816 368.539 786.429C433.916 766.529 460.186 727.327 448.693 667.33C418.877 655.862 385.867 655.862 356.051 667.33H355.305C337.244 668.077 324.308 664.196 316.746 655.739C309.183 647.282 307.293 635.839 309.681 620.467C304.422 581.465 296.358 542.892 285.55 505.05C266.943 446.147 250.723 385.653 237.787 325.208C230.772 262.574 252.713 223.372 275.799 181.832C289.63 156.957 303.909 131.585 313.412 99.2487L318.388 100.691C308.437 133.526 294.307 159.295 280.376 184.269C257.589 225.063 236.095 263.569 242.862 324.412C255.897 384.409 271.918 444.804 290.526 503.508C301.423 541.727 309.554 580.682 314.855 620.069V620.765C312.616 634.894 314.557 645.64 320.627 652.306C326.697 658.972 338.588 662.903 354.907 662.256C386.228 650.354 420.881 650.673 451.976 663.151L453.22 663.649L453.519 664.942C466.057 727.825 438.045 770.261 370.181 791.105C296.596 813.194 241.618 858.216 206.591 924.88Z" fill="#005c66"/>
<path d="M186.889 929.158L182.461 926.87C198.435 894.868 220.807 866.484 248.193 843.474C275.578 820.464 307.394 803.317 341.672 793.095C404.213 772.45 429.438 733.994 418.791 675.489C390.567 661.815 358.4 658.623 328.04 666.485H327.692H327.592C310.129 665.888 297.74 661.062 290.028 652.207C282.316 643.352 280.475 632.307 282.465 616.935C276.445 578.927 268.982 540.571 260.375 503.01C245.051 445.401 231.518 386.449 220.174 327.894C214.054 266.654 233.707 223.422 254.454 177.106C266.835 151.24 277.166 124.443 285.351 96.9604L290.327 98.3036C282.114 126.037 271.699 153.07 259.181 179.145C238.682 224.566 219.378 267.499 225.299 327.148C236.593 385.404 250.175 444.257 265.4 501.816C274.107 539.675 281.57 578.28 287.64 616.537V617.233C285.799 631.064 287.938 641.76 294.008 648.973C300.078 656.187 311.82 660.913 327.592 661.51C359.28 653.433 392.813 656.962 422.124 671.46L423.268 672.007V673.251C434.911 734.442 407.944 776.33 343.065 797.623C309.413 807.686 278.186 824.553 251.321 847.18C224.456 869.806 202.526 897.709 186.889 929.158Z" fill="#005c66"/>
<path d="M171.714 937.167L167.236 935.028C181.233 904.363 201.505 876.972 226.743 854.624C251.981 832.276 281.624 815.468 313.76 805.283C372.42 783.593 395.605 745.585 384.659 689.07C358.81 671.926 327.884 664.116 296.993 666.932H296.347C264.057 661.36 249.479 643.052 253.011 612.656C222.86 550.918 214.054 431.819 208.233 352.917C207.735 345.704 207.188 338.839 206.691 332.421C202.113 272.722 217.139 222.974 233.01 170.24C240.424 145.614 247.936 120.193 253.758 93.3779L258.733 94.3729C253.011 121.386 245.349 146.957 237.886 171.683C222.114 224.018 207.238 273.419 211.765 332.023C212.263 338.441 212.761 345.306 213.308 352.569C219.179 431.371 227.985 550.42 258.086 611.263L258.385 611.91V612.656C254.902 640.714 267.639 656.883 297.242 662.405C329.489 659.542 361.74 667.85 388.59 685.936L389.485 686.483V687.478C401.327 746.53 376.45 787.871 315.601 810.457C284.093 820.35 255.009 836.738 230.226 858.563C205.442 880.388 185.51 907.165 171.714 937.167Z" fill="#005c66"/>
<path d="M160.171 948.113L155.544 946.222C166.79 917.283 184.233 891.154 206.648 869.669C229.064 848.183 255.909 831.862 285.301 821.85C338.986 798.568 359.385 760.908 347.444 706.831C324.221 685.391 294.872 671.753 263.509 667.828H263.012C232.811 656.983 219.179 636.287 222.462 606.339C200.571 550.968 199.377 464.505 198.382 394.956C198.083 374.559 197.834 355.157 197.088 338.242C194.302 275.36 203.009 212.875 211.417 152.48C214.353 131.436 217.388 109.696 219.925 88.1548L224.9 88.7518C222.363 110.293 219.328 132.083 216.393 153.425C208.183 213.273 199.277 275.559 202.064 338.143C202.81 355.206 203.059 374.509 203.357 395.005C204.352 464.355 205.546 550.67 227.289 605.194V605.791V606.388C224.055 634.397 236.145 652.953 264.305 663.152C296.842 667.259 327.256 681.516 351.225 703.896L351.822 704.443V705.189C364.559 761.555 342.667 802.448 286.844 826.676C258.159 836.473 231.961 852.416 210.081 873.392C188.201 894.367 171.167 919.869 160.171 948.113Z" fill="#005c66"/>
<path d="M151.315 961.147L146.34 959.754C153.077 934.261 165.82 910.752 183.504 891.191C201.188 871.631 223.298 856.589 247.986 847.322C293.362 825.88 315.104 789.812 312.666 740.312C305.899 708.423 281.122 692.901 254.902 676.434C227.587 659.321 199.327 641.61 189.227 603.652C174.6 548.928 179.923 480.175 185.098 413.711C187.585 382.12 190.073 352.271 190.073 325.407C190.073 287.399 188.68 248.893 187.337 211.681C185.794 169.196 184.202 125.267 184.7 81.8863H189.675C189.177 125.168 190.77 169.046 192.312 211.233C193.655 248.545 195.048 287.05 195.048 325.158C195.048 352.221 192.66 382.17 190.073 413.86C185.098 479.877 179.625 548.182 194.004 602.11C203.606 638.128 231.07 655.341 257.539 671.758C284.008 688.175 310.377 704.891 317.592 739.217C320.378 791.354 297.69 828.765 250.175 851.451C226.116 860.483 204.578 875.161 187.374 894.251C170.17 913.34 157.803 936.282 151.315 961.147Z" fill="#005c66"/>
<path d="M144.15 975.624L139.175 974.728C148.13 925.527 175.395 889.857 220.273 868.813C259.18 845.729 276.345 810.856 270.972 765.335C265.101 729.516 241.12 707.677 215.895 684.593C189.675 660.614 162.559 635.839 156.19 593.951C148.429 544.202 159.424 491.17 170.121 439.729C177.435 404.408 185.048 367.892 186.092 333.615C187.684 281.429 176.788 230.386 166.191 181.036C158.014 146.032 151.867 110.585 147.782 74.8716L152.757 74.4239C156.802 109.939 162.915 145.188 171.067 179.991C181.664 229.74 192.61 280.981 190.968 333.764C189.874 368.589 182.261 405.204 174.898 440.774C164.3 491.717 153.354 544.351 161.017 593.105C167.285 633.302 193.754 657.48 219.378 680.862C244.254 703.547 269.828 726.979 275.997 764.589C281.619 812.398 263.658 848.864 222.711 873.141C202.034 882.21 183.987 896.363 170.251 914.281C156.515 932.2 147.536 953.302 144.15 975.624Z" fill="#005c66"/>
<path d="M137.583 991.344L132.856 989.802C142.21 960.599 161.614 935.675 180.421 911.597C209.228 874.584 236.443 839.61 228.831 791.354C222.761 752.699 199.526 723.596 177.037 695.438C151.663 663.649 125.443 630.765 122.756 583.852C120.07 536.938 136.886 493.11 153.106 450.674C166.49 415.85 180.321 379.583 182.958 342.222C187.187 284.513 165.445 227.799 144.399 173.324C131.165 138.848 117.433 103.179 110.417 67.6579L115.393 66.7127C122.308 101.537 135.941 137.257 149.126 171.533C170.371 226.705 192.312 283.767 187.983 342.62C185.197 380.677 171.266 417.243 157.733 452.465C141.712 494.403 125.095 537.834 127.881 583.553C130.667 629.272 156.24 661.161 181.117 692.304C204.004 720.959 227.687 750.61 233.956 790.558C241.916 841.003 212.761 878.414 184.55 914.631C165.793 938.411 146.688 962.987 137.583 991.344Z" fill="#005c66"/>
<path d="M131.065 1006.22L126.09 1005.37C131.314 976.32 144.449 951.894 157.086 928.313C173.157 898.464 188.331 870.206 188.083 833.79C187.784 786.877 163.853 746.879 140.717 708.174C116.388 667.53 91.2122 625.492 92.8044 574.947C94.1975 529.576 115.044 492.314 135.145 456.246C151.165 427.442 167.783 397.742 174.45 364.012C187.635 298.344 153.454 232.128 120.567 168.201C102.258 132.63 83.3014 95.8659 73.4502 60.395L78.4256 59.0518C88.0778 93.876 106.089 128.949 125.144 165.962C158.479 230.635 193.008 297.498 179.575 364.957C172.709 399.433 155.892 429.631 139.772 458.585C119.025 495.797 99.4713 530.919 98.0782 575.046C96.5359 624.099 121.313 665.54 145.294 705.587C168.778 744.839 193.058 785.434 193.357 833.691C193.605 871.35 177.435 901.448 161.763 930.601C149.026 953.933 136.14 977.962 131.065 1006.22Z" fill="#005c66"/>
<path d="M118.627 1020.3C116.438 990.051 124.746 963.286 132.757 937.416C140.369 912.84 148.23 887.668 147.136 859.062C145.295 811.602 124.05 767.076 103.502 723.994C79.7691 674.245 55.2406 622.855 60.9622 566.987C65.6888 520.919 91.8095 488.533 117.084 457.191C137.782 431.521 159.226 405.005 168.778 370.976C187.336 304.96 140.767 231.68 95.7898 160.439C71.7588 122.481 49.0213 86.662 37.4287 53.5293L42.1056 51.8876C53.5489 84.473 76.0873 120.093 99.9691 157.803C145.593 229.789 192.71 304.214 173.555 372.32C163.604 407.144 141.961 434.257 120.965 460.325C94.9937 492.513 70.4651 522.909 65.8878 567.484C60.3154 622.208 83.5006 670.514 108.029 721.706C128.776 765.236 150.27 810.209 152.111 858.714C153.205 887.966 145.245 913.786 137.483 938.71C129.274 965.375 121.463 990.498 123.602 1019.8L118.627 1020.3Z" fill="#005c66"/>
<path d="M108.676 1032.98C106.437 1006.18 106.005 979.254 107.383 952.391C109.094 922.241 108.229 892 104.795 861.997C99.3723 824.188 83.4014 783.842 66.4852 741.108C41.6084 678.673 16.1842 614.149 25.1896 556.291C32.5034 509.079 65.3906 482.016 97.1832 455.848C120.169 436.943 143.952 417.392 157.833 390.329C191.466 324.859 126.19 233.67 68.8733 153.475C40.5635 114.273 14.1444 77.4088 2.20349 47.46L6.83054 45.669C18.4729 75.0208 44.7926 111.735 72.6546 150.589C131.065 232.078 197.287 324.71 162.211 392.617C147.832 420.576 123.702 440.426 100.318 459.679C67.7788 486.443 37.0808 511.716 30.0158 557.037C21.2591 613.601 46.5837 677.479 71.0625 739.267C88.0783 782.3 104.198 822.895 109.671 861.301C113.142 891.584 114.024 922.107 112.308 952.54C110.929 979.171 111.361 1005.86 113.602 1032.44L108.676 1032.98Z" fill="#005c66"/>
<path d="M95.8892 1043.03C92.9537 1011.29 86.7346 979.106 80.7144 948.013C76.3361 925.378 71.7587 901.996 68.5247 878.862C63.5493 842.198 48.6232 800.409 33.6972 756.132C8.82032 684.345 -17.151 610.119 -5.06091 549.675C4.88982 500.523 41.807 477.24 77.6296 454.704C103.502 438.436 130.219 421.671 146.638 395.005C179.077 342.869 145.096 298.244 112.258 255.062C107.631 248.943 103.004 242.923 98.6755 236.904C85.6898 219.044 73.2016 202.876 61.1115 187.155C25.9854 141.784 -4.36437 102.582 -30.5348 42.3362L-25.9574 40.396C-0.0357761 100.095 30.1149 138.998 65.042 184.12C77.1321 199.791 89.6701 216.009 102.706 233.869C107.034 239.789 111.611 245.809 116.239 251.878C148.529 294.314 185.098 342.421 151.066 397.493C134.05 424.904 106.835 442.018 80.5154 458.535C43.9464 481.519 9.41742 503.309 0.0139847 550.321C-11.7776 609.423 13.7957 683.001 38.5731 754.291C54.0464 798.817 68.4252 840.805 73.8484 877.967C77.0824 900.951 81.61 924.333 85.9883 946.869C92.6705 978.431 97.7519 1010.31 101.213 1042.39L95.8892 1043.03Z" fill="#005c66"/>
<path d="M79.1718 1049.8C77.6295 1020.3 67.7782 993.583 57.3299 965.226C48.623 941.546 39.5679 917.02 35.7866 890.603C30.8113 855.082 17.4276 813.045 3.29752 768.52C-21.5793 689.419 -47.6503 607.682 -33.8685 545.197C-22.5247 493.956 17.4275 473.808 56.0363 454.306C84.1471 440.128 113.203 425.501 131.363 398.936C166.589 347.197 128.328 299.985 94.5457 258.395C89.0728 251.679 83.9481 245.311 79.122 238.993C64.594 219.989 50.6132 202.975 37.1299 186.508C-0.533569 140.689 -33.0227 101.139 -61.0837 39.2516L-56.5561 37.2119C-28.7936 98.4527 3.54625 137.804 40.961 183.374C54.494 199.841 68.5245 216.905 83.0526 235.958C88.028 242.227 93.0033 248.545 98.3767 255.261C133.204 298.244 173.007 346.948 135.443 401.721C116.587 429.382 86.9831 444.307 58.325 458.734C18.9699 478.633 -18.1961 497.289 -28.9926 546.292C-42.5256 607.433 -16.803 688.523 8.0241 766.977C22.2039 811.751 35.5876 853.988 40.7122 889.907C44.394 915.826 53.3496 940.103 62.0068 963.585C71.9575 990.946 82.5551 1019.25 84.1472 1049.5L79.1718 1049.8Z" fill="#005c66"/>
<path d="M62.6043 1052.49H57.629C57.629 1032.24 51.0117 1020.4 43.8472 1007.71C40.0729 1001.32 36.748 994.668 33.8964 987.812C20.9107 955.077 13.7462 937.068 7.52699 896.324C2.2531 861.898 -10.0361 820.755 -23.0715 777.175C-46.8538 697.577 -73.7705 608.029 -60.0882 543.356C-48.6449 489.727 -7.15036 471.668 33.0008 454.206C62.4052 441.421 92.7053 428.237 111.811 401.124C148.081 349.485 108.179 301.626 72.9531 259.191C67.4304 252.524 62.1565 246.256 57.3304 240.037C41.7575 220.138 26.7319 202.477 12.2536 185.314C-26.405 139.943 -59.7399 100.741 -88 37.7091L-83.4724 35.6694C-55.5109 98.0544 -22.3749 137.008 16.0349 182.08C30.563 199.194 45.5885 216.904 61.2609 236.804C66.2363 242.923 71.2116 249.191 76.7841 255.808C111.313 297.348 154.3 349.037 115.89 403.761C95.989 432.018 65.0422 445.55 34.991 458.485C-5.80697 476.245 -44.3163 492.96 -55.2124 544.102C-68.6458 607.233 -41.8784 696.533 -18.2951 775.335C-5.20992 819.064 7.12898 860.355 12.4526 895.13C18.6221 935.327 25.2393 952.092 38.5235 985.523C41.3663 992.239 44.6919 998.74 48.4742 1004.98C55.6885 1018.46 62.7536 1030.89 62.6043 1052.49Z" fill="#005c66"/>
</svg>
