<svg width="500" height="500" viewBox="0 0 500 500" fill="none" xmlns="http://www.w3.org/2000/svg">
	<path d="M250.002 270.986L63 375C113 375 145.99 407.99 145.99 457.988L250.002 270.986Z" stroke="white" stroke-width="4"/>
	<path d="M280 244.456L302.974 221.929M327.681 199.889L348.985 179" stroke="white" stroke-width="4"/>
	<path d="M442.337 109.161C436.371 106.797 403.117 95.9868 395.14 93.3519C360.574 88.7403 346.836 130.68 349.274 147.368C355.478 153.955 361.903 164.495 369.88 182.939C377.857 201.384 411.98 192.601 419.736 186.233C431.036 171.741 432.218 170.901 446.325 158.566C457.626 148.685 455.853 133.754 452.308 121.019C450.092 115.749 452.308 113.114 442.337 109.161Z" stroke="white" stroke-width="4" stroke-linecap="round" stroke-linejoin="round"/>
	<path d="M427.048 127.606C423.857 127.079 418.628 133.534 416.412 136.828C423.325 150.53 432.144 142.098 435.69 136.169C434.139 133.534 430.239 128.133 427.048 127.606Z" stroke="white" stroke-width="4" stroke-linecap="round" stroke-linejoin="round"/>
	<path d="M384.505 140.122C380.782 139.068 374.09 128.265 371.21 122.995C365.36 121.414 362.568 129.802 361.904 134.193C362.568 138.146 366.291 146.709 375.863 149.344C387.828 152.638 389.158 141.439 384.505 140.122Z" stroke="white" stroke-width="4" stroke-linecap="round" stroke-linejoin="round"/>
	<path d="M413.753 159.884C409.499 154.087 405.333 154.394 403.782 155.273C392.614 160.542 397.356 163.617 401.123 164.495C407.106 165.373 418.008 165.681 413.753 159.884Z" stroke="white" stroke-width="4" stroke-linecap="round" stroke-linejoin="round"/>
	<path d="M381.846 169.106C381.846 170.204 382.51 172.795 385.169 174.376M393.811 121.677C391.374 118.823 388.227 112.455 395.14 109.82" stroke="white" stroke-width="4" stroke-linecap="round" stroke-linejoin="round"/>
	<path d="M180.022 135.72C174.698 135.651 153.722 148.092 146.76 148.408C118.605 155.054 146.866 193.928 153.69 206.142C160.446 209.413 168.795 205.312 180.431 217.25C192.067 229.188 218.481 209.721 222.609 202.493C227.083 187.919 222.659 189.349 229.946 175.617C235.784 164.618 212.45 156.411 205.936 147.588C202.661 144.159 188.919 135.836 180.022 135.72Z" stroke="white" stroke-width="4" stroke-linecap="round" stroke-linejoin="round"/>
	<path d="M164.5 171.692C161.303 171.975 152.922 165.58 149.131 162.347C144.13 162.852 151.406 182.923 152.189 186.524C153.873 189.391 152.33 182.183 160.529 181.395C170.777 180.41 168.496 171.337 164.5 171.692Z" stroke="white" stroke-width="4" stroke-linecap="round" stroke-linejoin="round"/>
	<path d="M187.223 195.126C184.489 193.634 172.287 196.504 176.867 192.417" stroke="white" stroke-width="4" stroke-linecap="round" stroke-linejoin="round"/>
	<path d="M75.1239 186.39L164.533 226.422C220.213 251.352 281.381 164.979 208.569 132.378L104.169 85.6335" stroke="white" stroke-width="4" stroke-linecap="round" stroke-linejoin="round"/>
	<path d="M119.884 186.185L54.5672 156.94M127.127 162.113L95.5398 147.97M123.551 130.625L78.0434 110.249M157.236 129.318L126.184 115.415M99.3352 132.316L68.2828 118.412M96.5257 81.8899L82.0703 75.4176M69.3825 184.14L51.7148 176.23" stroke="white" stroke-width="4" stroke-linecap="round" stroke-linejoin="round"/>
</svg>